<svg width="42" height="42" viewBox="0 0 42 42" fill="none" xmlns="http://www.w3.org/2000/svg">
<path d="M39.6665 21C39.6665 17.3081 38.5717 13.6991 36.5206 10.6293C34.4695 7.55963 31.5541 5.16707 28.1433 3.75424C24.7324 2.3414 20.9791 1.97174 17.3582 2.692C13.7372 3.41225 10.4111 5.19008 7.80051 7.80066C5.18993 10.4112 3.4121 13.7373 2.69184 17.3583C1.97159 20.9793 2.34125 24.7325 3.75409 28.1434C5.16692 31.5543 7.55947 34.4696 10.6292 36.5208C13.6989 38.5719 17.3079 39.6667 20.9998 39.6667C25.9505 39.6667 30.6985 37.7 34.1992 34.1993C37.6998 30.6986 39.6665 25.9507 39.6665 21ZM21.5015 30.3333C21.1965 30.0216 21.0257 29.6028 21.0257 29.1667C21.0257 28.7305 21.1965 28.3117 21.5015 28L26.8332 22.6333H10.3365C9.90332 22.6333 9.48787 22.4612 9.18156 22.1549C8.87525 21.8486 8.70317 21.4332 8.70317 21C8.70317 20.5668 8.87525 20.1514 9.18156 19.845C9.48787 19.5387 9.90332 19.3667 10.3365 19.3667H26.6698L21.5015 14.1983C21.1921 13.8889 21.0183 13.4692 21.0183 13.0317C21.0183 12.5941 21.1921 12.1744 21.5015 11.865C21.8109 11.5556 22.2306 11.3817 22.6682 11.3817C23.1058 11.3817 23.5254 11.5556 23.8348 11.865L33.0165 21.0933L23.8115 30.3333C23.6598 30.485 23.4798 30.6053 23.2816 30.6874C23.0834 30.7695 22.871 30.8118 22.6565 30.8118C22.442 30.8118 22.2296 30.7695 22.0314 30.6874C21.8332 30.6053 21.6532 30.485 21.5015 30.3333Z" fill="#DE96E8"/>
</svg>
