<svg width="35" height="35" viewBox="0 0 35 35" fill="none" xmlns="http://www.w3.org/2000/svg">
<circle cx="17.5" cy="17.5" r="17.5" fill="#EAB488"/>
<path d="M27.528 12.054C27.3783 11.9007 27.2001 11.779 27.0039 11.6962C26.8076 11.6134 26.5971 11.571 26.3846 11.5714H23.1538V10.75C23.1538 9.22501 22.5582 7.76247 21.4979 6.68414C20.4376 5.6058 18.9995 5 17.5 5C16.0005 5 14.5624 5.6058 13.5021 6.68414C12.4418 7.76247 11.8462 9.22501 11.8462 10.75V11.5714H8.61538C8.18696 11.5714 7.77608 11.7445 7.47313 12.0526C7.17019 12.3607 7 12.7786 7 13.2143V24.3036C7 26.3058 8.66586 28 10.6346 28H24.3654C25.3177 28.0003 26.2323 27.6216 26.9136 26.945C27.2565 26.6123 27.5296 26.2124 27.7163 25.7695C27.903 25.3265 27.9995 24.8497 28 24.3677V13.2143C28.0007 12.9988 27.9593 12.7852 27.8783 12.5861C27.7972 12.3869 27.6782 12.2061 27.528 12.054ZM13.4615 10.75C13.4615 9.66072 13.887 8.61605 14.6444 7.84581C15.4017 7.07557 16.4289 6.64286 17.5 6.64286C18.5711 6.64286 19.5983 7.07557 20.3556 7.84581C21.113 8.61605 21.5385 9.66072 21.5385 10.75V11.5714H13.4615V10.75ZM23.1538 15.6786C23.1538 17.2036 22.5582 18.6661 21.4979 19.7444C20.4376 20.8228 18.9995 21.4286 17.5 21.4286C16.0005 21.4286 14.5624 20.8228 13.5021 19.7444C12.4418 18.6661 11.8462 17.2036 11.8462 15.6786V14.8571C11.8462 14.6393 11.9312 14.4304 12.0827 14.2763C12.2342 14.1223 12.4396 14.0357 12.6538 14.0357C12.8681 14.0357 13.0735 14.1223 13.225 14.2763C13.3764 14.4304 13.4615 14.6393 13.4615 14.8571V15.6786C13.4615 16.7679 13.887 17.8125 14.6444 18.5828C15.4017 19.353 16.4289 19.7857 17.5 19.7857C18.5711 19.7857 19.5983 19.353 20.3556 18.5828C21.113 17.8125 21.5385 16.7679 21.5385 15.6786V14.8571C21.5385 14.6393 21.6236 14.4304 21.775 14.2763C21.9265 14.1223 22.1319 14.0357 22.3461 14.0357C22.5604 14.0357 22.7658 14.1223 22.9173 14.2763C23.0687 14.4304 23.1538 14.6393 23.1538 14.8571V15.6786Z" fill="white"/>
</svg>
