<svg width="35" height="35" viewBox="0 0 35 35" fill="none" xmlns="http://www.w3.org/2000/svg">
<path d="M17.5 0C7.83501 0 0 7.83501 0 17.5C0 27.165 7.83501 35 17.5 35C27.165 35 35 27.165 35 17.5C35 7.83501 27.165 0 17.5 0ZM21.373 10.0188C23.4524 9.98635 25.333 11.1168 26.2245 13.0441C27.0491 15.592 26.359 18.184 24.9047 20.1374C23.9448 21.4621 22.7975 22.6045 21.6245 23.6026C20.5455 24.6071 18.1301 26.5949 17.49 26.6501C16.9243 26.5419 16.2891 25.9011 15.84 25.5718C13.3161 23.6532 10.5997 21.321 9.22209 18.7699C8.06706 16.3208 8.06496 13.2906 9.86259 11.4129C12.1935 9.31152 15.7073 9.72283 17.49 11.9182C17.9688 11.2971 18.5577 10.808 19.2564 10.4521C19.9646 10.1695 20.6798 10.0297 21.373 10.0188Z" fill="#DE96E8"/>
</svg>
