<svg width="24" height="24" viewBox="0 0 24 24" fill="none" xmlns="http://www.w3.org/2000/svg">
<circle cx="12" cy="12" r="12" fill="white"/>
<path d="M15.6689 4H8.33105C5.94287 4 4 5.94287 4 8.33105V15.669C4 18.0571 5.94287 20 8.33105 20H15.669C18.0571 20 20 18.0571 20 15.669V8.33105C20 5.94287 18.0571 4 15.6689 4V4ZM12 16.3749C9.58764 16.3749 7.62512 14.4123 7.62512 12C7.62512 9.58764 9.58764 7.62512 12 7.62512C14.4123 7.62512 16.3749 9.58764 16.3749 12C16.3749 14.4123 14.4123 16.3749 12 16.3749ZM16.4795 8.65685C15.7666 8.65685 15.1867 8.07702 15.1867 7.36413C15.1867 6.65124 15.7666 6.07129 16.4795 6.07129C17.1924 6.07129 17.7723 6.65124 17.7723 7.36413C17.7723 8.07702 17.1924 8.65685 16.4795 8.65685Z" fill="#453943"/>
<path d="M11.9999 8.56311C10.1049 8.56311 8.56299 10.1049 8.56299 12C8.56299 13.895 10.1049 15.4369 11.9999 15.4369C13.895 15.4369 15.4368 13.895 15.4368 12C15.4368 10.1049 13.895 8.56311 11.9999 8.56311Z" fill="#453943"/>
<path d="M16.4797 7.00928C16.2842 7.00928 16.125 7.16846 16.125 7.36401C16.125 7.55957 16.2842 7.71875 16.4797 7.71875C16.6754 7.71875 16.8346 7.55969 16.8346 7.36401C16.8346 7.16833 16.6754 7.00928 16.4797 7.00928Z" fill="#453943"/>
</svg>
