<svg width="19" height="18" fill="none" xmlns="http://www.w3.org/2000/svg"><path d="M13.157 0h-6.75A5.626 5.626 0 00.782 5.625v6.75A5.626 5.626 0 006.407 18h6.75a5.626 5.626 0 005.625-5.625v-6.75A5.626 5.626 0 0013.157 0zm3.938 12.375a3.942 3.942 0 01-3.938 3.937h-6.75a3.942 3.942 0 01-3.937-3.937v-6.75a3.942 3.942 0 013.937-3.938h6.75a3.942 3.942 0 013.938 3.938v6.75z" fill="#fff"/><path d="M9.782 4.5a4.5 4.5 0 100 9 4.5 4.5 0 000-9zm0 7.312A2.816 2.816 0 016.97 9a2.816 2.816 0 012.812-2.813A2.816 2.816 0 0112.595 9a2.816 2.816 0 01-2.813 2.812zm4.838-7.05a.6.6 0 100-1.2.6.6 0 000 1.2z" fill="#fff"/></svg>