<svg width="17" height="17" viewBox="0 0 17 17" fill="none" xmlns="http://www.w3.org/2000/svg">
<path d="M7.73848 2.46414C7.80863 2.3218 7.91722 2.20193 8.05197 2.11811C8.18672 2.03429 8.34224 1.98987 8.50093 1.98987C8.65962 1.98987 8.81514 2.03429 8.94989 2.11811C9.08464 2.20193 9.19323 2.3218 9.26338 2.46414L10.9039 5.78849L14.5733 6.32144C14.7303 6.34424 14.8778 6.41052 14.9991 6.51278C15.1204 6.61504 15.2106 6.7492 15.2596 6.90009C15.3086 7.05097 15.3144 7.21256 15.2763 7.36657C15.2383 7.52058 15.1579 7.66086 15.0442 7.77154L12.3888 10.3598L13.0161 14.0139C13.0429 14.1703 13.0254 14.331 12.9657 14.4779C12.9059 14.6248 12.8062 14.752 12.6779 14.8452C12.5496 14.9384 12.3977 14.9939 12.2396 15.0053C12.0814 15.0167 11.9232 14.9836 11.7828 14.9098L8.50178 13.1843L5.21908 14.9098C5.07873 14.9834 4.92061 15.0163 4.76257 15.0047C4.60453 14.9932 4.45286 14.9377 4.32468 14.8445C4.1965 14.7514 4.09692 14.6242 4.03718 14.4775C3.97744 14.3307 3.95991 14.1701 3.98658 14.0139L4.61303 10.3589L1.95763 7.77154C1.84398 7.66086 1.76358 7.52058 1.72551 7.36657C1.68745 7.21256 1.69324 7.05097 1.74224 6.90009C1.79124 6.7492 1.88149 6.61504 2.00277 6.51278C2.12405 6.41052 2.27154 6.34424 2.42853 6.32144L6.09798 5.78849L7.73848 2.46499V2.46414ZM8.50093 2.83984L6.86043 6.16504C6.79943 6.28862 6.70929 6.39552 6.59779 6.47652C6.48629 6.55752 6.35677 6.61019 6.22038 6.62999L2.55008 7.16294L5.20548 9.75119C5.30406 9.84743 5.37777 9.96618 5.42027 10.0972C5.46276 10.2283 5.47277 10.3677 5.44943 10.5034L4.82298 14.1576L8.10398 12.4321C8.226 12.3679 8.36179 12.3344 8.49966 12.3344C8.63752 12.3344 8.77331 12.3679 8.89533 12.4321L12.1772 14.1576L11.5507 10.5026C11.5275 10.367 11.5376 10.2277 11.5801 10.0968C11.6226 9.96595 11.6962 9.84734 11.7947 9.75119L14.4501 7.16294L10.7806 6.62999C10.6444 6.61006 10.515 6.55733 10.4037 6.47634C10.2924 6.39534 10.2023 6.28852 10.1414 6.16504L8.50093 2.83984Z" fill="#453943"/>
</svg>
