<svg width="35" height="35" viewBox="0 0 35 35" fill="none" xmlns="http://www.w3.org/2000/svg">
<g clip-path="url(#clip0)">
<path d="M30.8288 28.5658C32.6178 26.4134 33.862 23.8619 34.4562 21.1269C35.0505 18.392 34.9772 15.5542 34.2428 12.8536C33.5083 10.1529 32.1342 7.66888 30.2367 5.61161C28.3392 3.55434 25.9741 1.98435 23.3415 1.03445C20.7089 0.0845446 17.8862 -0.217323 15.1123 0.154382C12.3384 0.526087 9.69475 1.56043 7.4051 3.16991C5.11545 4.77939 3.24712 6.91665 1.95817 9.4009C0.669215 11.8852 -0.00244472 14.6433 6.68626e-06 17.442C0.000947376 21.5106 1.43469 25.4489 4.04965 28.5658L4.02473 28.587C4.11193 28.6916 4.21158 28.7813 4.30127 28.8847C4.41338 29.013 4.53421 29.1338 4.65005 29.2584C4.99884 29.6371 5.35759 30.0008 5.73378 30.3421C5.84838 30.4467 5.96672 30.5439 6.08256 30.6435C6.48117 30.9873 6.891 31.3137 7.31577 31.6177C7.37058 31.655 7.4204 31.7036 7.47521 31.7422V31.7273C10.3927 33.7803 13.873 34.8822 17.4405 34.8822C21.0079 34.8822 24.4883 33.7803 27.4058 31.7273V31.7422C27.4606 31.7036 27.5092 31.655 27.5652 31.6177C27.9887 31.3125 28.3998 30.9873 28.7984 30.6435C28.9143 30.5439 29.0326 30.4455 29.1472 30.3421C29.5234 29.9995 29.8821 29.6371 30.2309 29.2584C30.3468 29.1338 30.4664 29.013 30.5797 28.8847C30.6681 28.7813 30.769 28.6916 30.8562 28.5857L30.8288 28.5658ZM17.4392 7.47677C18.5479 7.47677 19.6317 7.80552 20.5535 8.42146C21.4753 9.0374 22.1938 9.91285 22.618 10.9371C23.0423 11.9614 23.1533 13.0885 22.937 14.1758C22.7207 15.2632 22.1868 16.262 21.4029 17.0459C20.619 17.8298 19.6202 18.3637 18.5328 18.58C17.4455 18.7963 16.3184 18.6853 15.2941 18.261C14.2699 17.8368 13.3944 17.1183 12.7785 16.1965C12.1625 15.2747 11.8338 14.1909 11.8338 13.0822C11.8338 11.5956 12.4243 10.1698 13.4756 9.11857C14.5268 8.06734 15.9526 7.47677 17.4392 7.47677V7.47677ZM7.48268 28.5658C7.50429 26.9302 8.16898 25.3689 9.33294 24.2196C10.4969 23.0703 12.0665 22.4255 13.7023 22.4247H21.1762C22.812 22.4255 24.3816 23.0703 25.5456 24.2196C26.7095 25.3689 27.3742 26.9302 27.3958 28.5658C24.6639 31.0276 21.1168 32.3901 17.4392 32.3901C13.7617 32.3901 10.2146 31.0276 7.48268 28.5658V28.5658Z" fill="#AAAEF7"/>
</g>
<defs>
<clipPath id="clip0">
<rect width="35" height="35" fill="white"/>
</clipPath>
</defs>
</svg>
