<svg width="24" height="24" viewBox="0 0 24 24" fill="none" xmlns="http://www.w3.org/2000/svg">
<path d="M0 0V24H24V0H0ZM10.6538 6.41748C11.3333 6.41044 11.998 6.48578 12.3223 6.49512C13.5243 6.52972 13.7365 7.13766 13.7212 7.6377C13.6987 8.37004 13.2275 11.4679 14.1006 11.77C15.3728 11.0897 16.2259 8.97684 16.8471 7.6377C17.1614 6.96034 17.1117 6.92668 17.8359 6.92578L20.7129 6.92138C21.4057 6.92052 21.3786 6.89622 21.6006 7.1792C22.1168 7.83736 19.9716 10.5751 19.2788 11.332C18.0002 12.729 18.7462 13.2699 18.9521 13.4619C19.9063 14.3516 20.8283 15.2741 21.4014 16.125C21.8569 16.8014 21.6688 17.4312 21.0893 17.4551L18.0044 17.5825C16.9806 17.6246 15.3888 15.7895 15.1348 15.3896C14.9293 15.0598 13.939 14.6465 13.8457 15.4892L13.7153 16.6655C13.6206 17.5063 12.9998 17.4867 12.5098 17.5077C9.11638 17.6538 7.96076 16.3618 6.25192 14.455C4.9995 12.6838 3.80432 10.9024 2.81394 8.76848C2.5175 8.12972 2.36048 7.66114 2.32028 7.16448C2.8186 6.775 4.56774 6.94276 5.74216 6.91692C6.06338 6.90984 6.28012 7.0939 6.44968 7.46038C7.1113 8.89064 7.83286 10.2952 8.78758 11.537C9.20336 11.92 9.57092 12.0608 9.75438 11.2822C9.8609 11.2724 9.85234 9.9829 9.85838 9.01018C9.86252 8.3423 9.78406 7.54136 8.65282 7.1718C8.88164 6.57202 9.78012 6.42654 10.6538 6.41748Z" fill="white"/>
</svg>
