<svg width="18" height="18" fill="none" xmlns="http://www.w3.org/2000/svg"><path d="M9.002 0h-.004C4.035 0 0 4.036 0 9c0 1.969.634 3.793 1.713 5.275L.592 17.619l3.46-1.106A8.922 8.922 0 009.001 18C13.964 18 18 13.962 18 9s-4.036-9-8.998-9zm5.237 12.709c-.217.613-1.079 1.122-1.766 1.27-.47.1-1.085.18-3.152-.677-2.645-1.096-4.349-3.783-4.481-3.958-.127-.174-1.07-1.423-1.07-2.714 0-1.292.656-1.92.92-2.19.217-.222.576-.324.92-.324.112 0 .212.006.302.01.264.012.397.027.571.445.218.523.746 1.814.81 1.947.063.133.128.313.038.487-.085.18-.159.26-.292.413-.133.153-.259.27-.391.434-.122.143-.26.296-.106.56.153.26.682 1.122 1.46 1.815 1.005.895 1.82 1.18 2.11 1.302.218.09.477.069.635-.1.202-.217.45-.577.703-.932.18-.254.407-.285.646-.195.243.084 1.529.72 1.793.851.265.133.439.196.503.307.063.112.063.635-.154 1.249z" fill="#fff"/></svg>