<svg width="23" height="23" viewBox="0 0 23 23" fill="none" xmlns="http://www.w3.org/2000/svg">
<g clip-path="url(#clip0)">
<path d="M4.76172 9.08379V11.3341C4.76172 15.106 5.2219 18.8592 6.1295 22.4896C6.20447 22.7895 6.474 23 6.7832 23H8.13086C8.44005 23 8.70959 22.7895 8.78456 22.4896C9.69216 18.8592 10.1523 15.106 10.1523 11.3341V9.08379L13.9979 5.23816C14.1993 5.03678 14.2524 4.7305 14.1304 4.4731C13.1108 2.32188 10.2695 0 7.45703 0C4.64451 0 1.80325 2.32188 0.783703 4.47314C0.661696 4.7305 0.714748 5.03678 0.916133 5.2382L4.76172 9.08379ZM8.80468 9.47852V10.8262H6.10937V9.47852H8.80468ZM7.60154 21.6523H7.31251C6.57818 18.5583 6.17788 15.376 6.11818 12.1734H8.79588C8.73618 15.376 8.33588 18.5583 7.60154 21.6523ZM7.45703 1.34766C9.50142 1.34766 11.6998 2.98039 12.6916 4.63859L9.19941 8.13086H5.71464L2.22242 4.63859C3.21425 2.98039 5.41268 1.34766 7.45703 1.34766Z" fill="#7197E2"/>
<path d="M19.3531 22.1672C19.5491 22.7198 19.8541 23 20.2598 23C20.6654 23 20.9704 22.7198 21.1665 22.1672C21.5386 21.1179 21.7831 18.6129 21.8838 17.4981C22.1216 14.8659 22.2812 11.6431 22.2812 9.47852V7.45703C22.2812 6.93967 22.0857 6.46731 21.7649 6.10938C22.0857 5.75144 22.2812 5.27908 22.2812 4.76172C22.2812 3.94985 21.2123 1.23472 20.8847 0.421951C20.782 0.166975 20.5346 0 20.2598 0C19.9849 0 19.7375 0.166975 19.6348 0.421951C19.3072 1.23472 18.2383 3.94985 18.2383 4.76172C18.2383 5.27908 18.4339 5.75144 18.7547 6.10938C18.4339 6.46731 18.2383 6.93967 18.2383 7.45703V9.47852C18.2383 11.6431 18.398 14.8659 18.6357 17.4981C18.7363 18.6119 18.9809 21.1178 19.3531 22.1672ZM20.9336 7.45703V8.13086H19.5859C19.5859 8.04551 19.5859 7.64907 19.5859 7.45703C19.5859 7.08548 19.8882 6.7832 20.2598 6.7832C20.6313 6.7832 20.9336 7.08548 20.9336 7.45703ZM20.5917 16.7995C20.4811 18.1262 20.3668 19.14 20.2598 19.8995C20.1527 19.14 20.0384 18.1262 19.9278 16.7995C19.7202 14.3073 19.5859 11.4337 19.5859 9.47807H20.9336C20.9336 11.4337 20.7994 14.3073 20.5917 16.7995ZM20.2598 2.55493C20.6367 3.5889 20.93 4.50333 20.9336 4.76194C20.9335 5.1334 20.6313 5.43555 20.2598 5.43555C19.8882 5.43555 19.5859 5.13327 19.5859 4.76212C19.5895 4.50364 19.8827 3.58908 20.2598 2.55493Z" fill="#7197E2"/>
<path d="M11.5 10.8262V15.3243C11.5 18.256 11.974 19.8145 12.8822 22.5393C12.974 22.8144 13.2315 23 13.5215 23H14.8691C15.1592 23 15.4166 22.8144 15.5084 22.5392C16.4167 19.8145 16.8906 18.256 16.8906 15.3243C16.8906 14.9141 16.8906 11.4336 16.8906 10.8262C16.8906 9.33998 15.6815 8.13086 14.1953 8.13086C12.7091 8.13086 11.5 9.33998 11.5 10.8262ZM15.5259 16.2168H12.8647C12.8534 15.9341 12.8477 14.8691 12.8477 14.8691H15.543C15.543 14.8691 15.5373 15.9341 15.5259 16.2168ZM14.3829 21.6523H14.0077C13.484 20.0666 13.1421 18.9188 12.9729 17.564H15.4177C15.2486 18.9188 14.9067 20.0666 14.3829 21.6523ZM12.8477 10.8262C12.8477 10.0831 13.4522 9.47852 14.1953 9.47852C14.9384 9.47852 15.543 10.0831 15.543 10.8262V13.5215H12.8477V10.8262Z" fill="#7197E2"/>
</g>
<defs>
<clipPath id="clip0">
<rect width="23" height="23" fill="white"/>
</clipPath>
</defs>
</svg>
