<svg width="20" height="20" viewBox="0 0 20 20" fill="none" xmlns="http://www.w3.org/2000/svg">
<g clip-path="url(#clip0)">
<path d="M15.5467 12.2061C15.544 12.2016 15.5412 12.1972 15.5384 12.1927C14.7952 11.0448 14.4024 9.71473 14.4024 8.34636C14.4024 7.39228 14.5912 6.46302 14.9637 5.58432C15.6534 3.95623 16.0031 2.23417 16.0031 0.465861C16.0031 0.208566 15.7945 0 15.5372 0C15.28 0 15.0714 0.208566 15.0714 0.465861C15.0714 1.73039 14.8781 2.9693 14.4972 4.16265C11.5793 3.20107 8.4208 3.20102 5.50288 4.16246C5.12195 2.96912 4.92866 1.7303 4.92866 0.465861C4.92866 0.208566 4.72005 0 4.4628 0C4.20555 0 3.99694 0.208566 3.99694 0.465861C3.99694 2.23408 4.34666 3.95618 5.03642 5.58441C5.40882 6.46302 5.59764 7.39232 5.59764 8.34641C5.59764 9.71473 5.20478 11.0448 4.46164 12.1928C4.4588 12.1972 4.45605 12.2016 4.45339 12.2061C3.61792 13.5024 3.17651 15.0026 3.17651 16.5456V16.9644V19.5342C3.17651 19.7915 3.38513 20.0001 3.64237 20.0001C3.89962 20.0001 4.10823 19.7915 4.10823 19.5342V17.172C4.78681 16.6417 6.01868 16.6635 7.12939 17.2469C7.7364 17.5656 8.25342 18.0203 8.59825 18.536V19.5342C8.59825 19.7915 8.80686 20.0001 9.06411 20.0001C9.32135 20.0001 9.52997 19.7915 9.52997 19.5342V18.8828C9.84284 18.8903 10.1567 18.8903 10.4696 18.8828V19.5342C10.4696 19.7915 10.6782 20.0001 10.9355 20.0001C11.1927 20.0001 11.4013 19.7915 11.4013 19.5342V18.536C11.746 18.0205 12.2632 17.5658 12.8706 17.2469C13.9814 16.6635 15.2132 16.6418 15.8918 17.172V19.5343C15.8918 19.7916 16.1004 20.0001 16.3576 20.0001C16.6149 20.0001 16.8235 19.7916 16.8235 19.5343V16.9643V16.5455C16.8235 15.0026 16.382 13.5023 15.5467 12.2061ZM6.52936 8.34636C6.52936 7.26668 6.31567 6.21505 5.8943 5.22085C5.86872 5.16043 5.84445 5.09964 5.8199 5.03893C8.53303 4.151 11.467 4.151 14.1801 5.03912C14.1555 5.09973 14.1313 5.16043 14.1058 5.22076C13.6844 6.21505 13.4707 7.26663 13.4707 8.34631C13.4707 9.88966 13.9124 11.3901 14.748 12.6863C14.7481 12.6864 14.7482 12.6865 14.7482 12.6866C13.2276 13.262 11.633 13.5544 9.99993 13.5544C8.36695 13.5544 6.77235 13.2621 5.25178 12.6867C5.25183 12.6866 5.25192 12.6865 5.25197 12.6864C6.08777 11.3901 6.52936 9.88975 6.52936 8.34636ZM12.4374 16.4219C11.723 16.797 11.1063 17.3319 10.6772 17.9444C10.2268 17.9609 9.77291 17.9609 9.32243 17.9444C8.89323 17.3317 8.27662 16.7968 7.56268 16.4219C6.376 15.7986 5.08612 15.6983 4.12319 16.0982C4.17984 15.1975 4.40732 14.3207 4.79305 13.5093C6.45785 14.1575 8.20744 14.4862 9.99997 14.4862C11.7926 14.4862 13.5422 14.1574 15.207 13.5092C15.5928 14.3206 15.8203 15.1974 15.8769 16.0982C14.9139 15.6983 13.6241 15.7986 12.4374 16.4219Z" fill="#AAAEF7"/>
<path d="M9.99987 10.9045C10.2507 10.9045 10.4541 10.7012 10.4541 10.4503C10.4541 10.1995 10.2507 9.99609 9.99987 9.99609C9.74901 9.99609 9.54565 10.1995 9.54565 10.4503C9.54565 10.7012 9.74901 10.9045 9.99987 10.9045Z" fill="#AAAEF7"/>
</g>
<defs>
<clipPath id="clip0">
<rect width="20" height="20" fill="white"/>
</clipPath>
</defs>
</svg>
