<svg width="24" height="24" viewBox="0 0 24 24" fill="none" xmlns="http://www.w3.org/2000/svg">
<g clip-path="url(#clip0)">
<path d="M18.656 14.6473C18.6527 14.6419 18.6494 14.6366 18.646 14.6313C17.7542 13.2538 17.2828 11.6577 17.2828 10.0156C17.2828 8.87073 17.5094 7.75563 17.9564 6.70118C18.784 4.74747 19.2037 2.68101 19.2037 0.559033C19.2037 0.250279 18.9533 0 18.6446 0C18.3359 0 18.0856 0.250279 18.0856 0.559033C18.0856 2.07647 17.8537 3.56316 17.3966 4.99518C13.8951 3.84128 10.1049 3.84123 6.60341 4.99496C6.14629 3.56294 5.91435 2.07636 5.91435 0.559033C5.91435 0.250279 5.66401 0 5.35531 0C5.04661 0 4.79628 0.250279 4.79628 0.559033C4.79628 2.6809 5.21595 4.74742 6.04365 6.70129C6.49054 7.75563 6.71712 8.87079 6.71712 10.0157C6.71712 11.6577 6.24568 13.2538 5.35392 14.6314C5.35051 14.6366 5.34721 14.6419 5.34402 14.6473C4.34145 16.2029 3.81177 18.0031 3.81177 19.8547V20.3572V23.4411C3.81177 23.7498 4.0621 24.0001 4.3708 24.0001C4.6795 24.0001 4.92983 23.7498 4.92983 23.4411V20.6064C5.74412 19.97 7.22237 19.9962 8.55522 20.6962C9.28364 21.0787 9.90405 21.6243 10.3178 22.2432V23.4411C10.3178 23.7498 10.5682 24.0001 10.8769 24.0001C11.1856 24.0001 11.4359 23.7498 11.4359 23.4411V22.6594C11.8114 22.6684 12.188 22.6684 12.5635 22.6594V23.4411C12.5635 23.7498 12.8138 24.0001 13.1225 24.0001C13.4312 24.0001 13.6815 23.7498 13.6815 23.4411V22.2432C14.0951 21.6246 14.7158 21.079 15.4447 20.6962C16.7776 19.9962 18.2558 19.9701 19.0701 20.6064V23.4411C19.0701 23.7499 19.3204 24.0002 19.6291 24.0002C19.9378 24.0002 20.1881 23.7499 20.1881 23.4411V20.3572V19.8546C20.1881 18.0031 19.6583 16.2028 18.656 14.6473ZM7.83518 10.0156C7.83518 8.72002 7.57875 7.45806 7.07311 6.26502C7.04242 6.19252 7.01329 6.11956 6.98383 6.04672C10.2396 4.9812 13.7603 4.9812 17.0161 6.04694C16.9866 6.11967 16.9575 6.19252 16.9269 6.26491C16.4212 7.45806 16.1648 8.71996 16.1648 10.0156C16.1648 11.8676 16.6948 13.6681 17.6976 15.2236C17.6976 15.2237 17.6977 15.2239 17.6978 15.224C15.8731 15.9144 13.9595 16.2653 11.9999 16.2653C10.0403 16.2653 8.12677 15.9145 6.30209 15.224C6.30215 15.2239 6.30226 15.2237 6.30231 15.2236C7.30527 13.6681 7.83518 11.8677 7.83518 10.0156ZM14.9249 19.7062C14.0676 20.1564 13.3276 20.7983 12.8126 21.5333C12.2721 21.5531 11.7274 21.5531 11.1869 21.5333C10.6718 20.7981 9.93189 20.1561 9.07517 19.7063C7.65115 18.9584 6.1033 18.838 4.94778 19.3179C5.01576 18.237 5.28873 17.1848 5.75161 16.2111C7.74937 16.9889 9.84887 17.3835 11.9999 17.3835C14.1511 17.3835 16.2506 16.9889 18.2484 16.2111C18.7113 17.1848 18.9843 18.2369 19.0522 19.3179C17.8967 18.838 16.3489 18.9583 14.9249 19.7062Z" fill="#453943"/>
<path d="M11.9999 13.0855C12.3009 13.0855 12.5449 12.8414 12.5449 12.5404C12.5449 12.2394 12.3009 11.9954 11.9999 11.9954C11.6989 11.9954 11.4548 12.2394 11.4548 12.5404C11.4548 12.8414 11.6989 13.0855 11.9999 13.0855Z" fill="#453943"/>
</g>
<defs>
<clipPath id="clip0">
<rect width="24" height="24" fill="white"/>
</clipPath>
</defs>
</svg>
