<svg width="22" height="22" viewBox="0 0 22 22" fill="none" xmlns="http://www.w3.org/2000/svg">
<g clip-path="url(#clip0)">
<path d="M21.3125 6.87451H0.688445C0.308962 6.87451 0.000976562 7.1825 0.000976562 7.56198C0.000976562 7.94146 0.308962 8.24945 0.688445 8.24945H21.3125C21.692 8.24945 22 7.94146 22 7.56198C22 7.1825 21.692 6.87451 21.3125 6.87451Z" fill="#453943"/>
<path d="M17.0143 7.10552L11.5146 0.918309C11.2533 0.624073 10.746 0.624073 10.4861 0.918309L4.98639 7.10552C4.73477 7.38876 4.75952 7.82461 5.04414 8.07622C5.32737 8.32784 5.76185 8.30309 6.01484 8.01848L11.0004 2.40874L15.9859 8.01848C16.122 8.17109 16.3104 8.24947 16.5001 8.24947C16.6623 8.24947 16.826 8.19172 16.9566 8.07622C17.2398 7.82324 17.2673 7.38876 17.0143 7.10552Z" fill="#453943"/>
<path d="M21.8281 7.10962L17.0159 1.60987C16.9059 1.48338 16.7519 1.40088 16.5855 1.38026L11.0858 0.692792C11.0321 0.687292 10.9826 0.687292 10.9318 0.691417L4.05708 1.37888C3.84534 1.39951 3.6556 1.51775 3.54286 1.69787L0.105517 7.19761C-0.0498509 7.44373 -0.0319767 7.75996 0.14814 7.9882L10.4602 21.0501C10.5908 21.2151 10.7901 21.3113 11.0005 21.3113C11.2109 21.3113 11.4102 21.2151 11.5395 21.0501L21.8515 7.9882C22.0564 7.72834 22.0467 7.35848 21.8281 7.10962ZM11.0005 19.5143L1.5272 7.51522L4.53006 2.7112L10.9923 2.06498L16.1551 2.7112L20.4188 7.58397L11.0005 19.5143Z" fill="#453943"/>
<path d="M11.6344 20.3572L6.13469 7.29533C5.98619 6.94472 5.58059 6.78385 5.23411 6.92822C4.8835 7.07534 4.71988 7.47819 4.867 7.8288L10.3667 20.8907C10.4781 21.1533 10.7325 21.3114 11.0006 21.3114C11.0886 21.3114 11.1807 21.2935 11.2673 21.2578C11.6165 21.1107 11.7815 20.7078 11.6344 20.3572Z" fill="#453943"/>
<path d="M16.7668 6.92818C16.4135 6.77968 16.0134 6.94605 15.8663 7.29528L10.3665 20.3572C10.2194 20.7078 10.383 21.1106 10.7336 21.2578C10.8202 21.2935 10.911 21.3114 11.0004 21.3114C11.2685 21.3114 11.5228 21.1533 11.6342 20.8906L17.134 7.82876C17.2811 7.47815 17.1161 7.07529 16.7668 6.92818Z" fill="#453943"/>
<path d="M6.16745 7.39575L4.79251 1.89601C4.70039 1.52753 4.32503 1.30204 3.9593 1.39553C3.59081 1.48765 3.3667 1.86164 3.4602 2.22874L4.83513 7.72849C4.91213 8.04197 5.19262 8.24959 5.5006 8.24959C5.5556 8.24959 5.61197 8.24271 5.66697 8.22896C6.03545 8.13684 6.25957 7.76423 6.16745 7.39575Z" fill="#453943"/>
<path d="M16.5005 1.37476C16.121 1.37476 15.813 1.68274 15.813 2.06222V7.56197C15.813 7.94145 16.121 8.24943 16.5005 8.24943C16.8799 8.24943 17.1879 7.94145 17.1879 7.56197V2.06222C17.1879 1.68274 16.8799 1.37476 16.5005 1.37476Z" fill="#453943"/>
</g>
<defs>
<clipPath id="clip0">
<rect width="22" height="22" fill="white"/>
</clipPath>
</defs>
</svg>
