<svg width="20" height="20" viewBox="0 0 20 20" fill="none" xmlns="http://www.w3.org/2000/svg">
<g clip-path="url(#clip0)">
<path d="M19.3752 6.24963H0.62607C0.281086 6.24963 0.00109863 6.52962 0.00109863 6.8746C0.00109863 7.21959 0.281086 7.49958 0.62607 7.49958H19.3752C19.7202 7.49958 20.0002 7.21959 20.0002 6.8746C20.0002 6.52962 19.7202 6.24963 19.3752 6.24963Z" fill="#DE96E8"/>
<path d="M15.4677 6.45963L10.468 0.834893C10.2305 0.567405 9.76925 0.567405 9.53301 0.834893L4.53325 6.45963C4.30451 6.71712 4.32701 7.11335 4.58574 7.34209C4.84323 7.57083 5.23821 7.54833 5.4682 7.28959L10.0005 2.18983L14.5328 7.28959C14.6565 7.42833 14.8278 7.49958 15.0003 7.49958C15.1478 7.49958 15.2965 7.44708 15.4152 7.34209C15.6727 7.1121 15.6977 6.71712 15.4677 6.45963Z" fill="#DE96E8"/>
<path d="M19.8438 6.46338L15.469 1.46361C15.369 1.34862 15.229 1.27362 15.0777 1.25487L10.078 0.629899C10.0292 0.6249 9.98421 0.6249 9.93797 0.628649L3.68826 1.25362C3.49577 1.27237 3.32327 1.37986 3.22078 1.54361L0.0959244 6.54337C-0.045319 6.76711 -0.0290698 7.0546 0.134673 7.26209L9.50924 19.1365C9.62798 19.2865 9.80922 19.374 10.0005 19.374C10.1917 19.374 10.3729 19.2865 10.4904 19.1365L19.865 7.26209C20.0512 7.02585 20.0425 6.68961 19.8438 6.46338ZM10.0005 17.7403L1.38836 6.83211L4.11824 2.46481L9.99296 1.87734L14.6865 2.46481L18.5626 6.89461L10.0005 17.7403Z" fill="#DE96E8"/>
<path d="M10.5767 18.5066L5.57691 6.63215C5.44192 6.31341 5.07318 6.16717 4.7582 6.29841C4.43947 6.43216 4.29072 6.79839 4.42447 7.11712L9.42422 18.9916C9.52547 19.2303 9.7567 19.374 10.0004 19.374C10.0804 19.374 10.1642 19.3578 10.2429 19.3253C10.5604 19.1916 10.7104 18.8253 10.5767 18.5066Z" fill="#DE96E8"/>
<path d="M15.2427 6.29835C14.9215 6.16336 14.5577 6.3146 14.424 6.63209L9.42422 18.5065C9.29048 18.8253 9.43922 19.1915 9.75796 19.3252C9.8367 19.3577 9.9192 19.374 10.0004 19.374C10.2442 19.374 10.4754 19.2302 10.5767 18.9915L15.5764 7.11706C15.7102 6.79833 15.5602 6.4321 15.2427 6.29835Z" fill="#DE96E8"/>
<path d="M5.6069 6.72336L4.35696 1.72359C4.27321 1.38861 3.93198 1.18361 3.59949 1.26861C3.26451 1.35236 3.06077 1.69234 3.14577 2.02608L4.39571 7.02584C4.46571 7.31083 4.72069 7.49957 5.00068 7.49957C5.05068 7.49957 5.10193 7.49332 5.15192 7.48082C5.48691 7.39707 5.69065 7.05834 5.6069 6.72336Z" fill="#DE96E8"/>
<path d="M15.0002 1.24976C14.6552 1.24976 14.3752 1.52974 14.3752 1.87473V6.87449C14.3752 7.21948 14.6552 7.49946 15.0002 7.49946C15.3452 7.49946 15.6252 7.21948 15.6252 6.87449V1.87473C15.6252 1.52974 15.3452 1.24976 15.0002 1.24976Z" fill="#DE96E8"/>
</g>
<defs>
<clipPath id="clip0">
<rect width="20" height="20" fill="white"/>
</clipPath>
</defs>
</svg>
