<svg width="22" height="22" viewBox="0 0 22 22" fill="none" xmlns="http://www.w3.org/2000/svg">
<g clip-path="url(#clip0)">
<path d="M12.2152 11.0008L21.7481 1.46782C22.0837 1.13219 22.0837 0.588039 21.7481 0.252454C21.4124 -0.0831317 20.8683 -0.0831747 20.5327 0.252454L10.9997 9.7854L1.46685 0.252454C1.13122 -0.0831747 0.587062 -0.0831747 0.251477 0.252454C-0.0841083 0.588082 -0.0841512 1.13224 0.251477 1.46782L9.78438 11.0007L0.251477 20.5337C-0.0841512 20.8693 -0.0841512 21.4135 0.251477 21.749C0.41927 21.9168 0.639226 22.0007 0.859183 22.0007C1.07914 22.0007 1.29905 21.9168 1.46689 21.749L10.9997 12.2161L20.5326 21.749C20.7004 21.9168 20.9204 22.0007 21.1404 22.0007C21.3603 22.0007 21.5802 21.9168 21.7481 21.749C22.0837 21.4134 22.0837 20.8693 21.7481 20.5337L12.2152 11.0008Z" fill="white"/>
</g>
<defs>
<clipPath id="clip0">
<rect width="22" height="22" fill="white"/>
</clipPath>
</defs>
</svg>
