<svg width="28" height="28" viewBox="0 0 28 28" fill="none" xmlns="http://www.w3.org/2000/svg">
<path d="M13.8125 0C6.19637 0 0 6.19637 0 13.8125C0 21.4286 6.19637 27.625 13.8125 27.625C21.4286 27.625 27.625 21.4286 27.625 13.8125C27.625 6.19637 21.4286 0 13.8125 0ZM7.96875 20.0547C7.65354 20.0547 7.3454 19.9612 7.08331 19.7861C6.82122 19.611 6.61694 19.3621 6.49632 19.0708C6.37569 18.7796 6.34413 18.4592 6.40562 18.15C6.46712 17.8409 6.61891 17.5569 6.8418 17.334C7.06469 17.1111 7.34867 16.9593 7.65782 16.8978C7.96698 16.8363 8.28743 16.8679 8.57865 16.9885C8.86987 17.1091 9.11878 17.3134 9.29391 17.5755C9.46903 17.8376 9.5625 18.1457 9.5625 18.4609C9.5625 18.8836 9.39459 19.289 9.0957 19.5879C8.79682 19.8868 8.39144 20.0547 7.96875 20.0547ZM7.96875 15.3398C7.65354 15.3398 7.3454 15.2464 7.08331 15.0712C6.82122 14.8961 6.61694 14.6472 6.49632 14.356C6.37569 14.0648 6.34413 13.7443 6.40562 13.4352C6.46712 13.126 6.61891 12.842 6.8418 12.6191C7.06469 12.3963 7.34867 12.2445 7.65782 12.183C7.96698 12.1215 8.28743 12.153 8.57865 12.2737C8.86987 12.3943 9.11878 12.5986 9.29391 12.8607C9.46903 13.1227 9.5625 13.4309 9.5625 13.7461C9.5625 14.1688 9.39459 14.5742 9.0957 14.873C8.79682 15.1719 8.39144 15.3398 7.96875 15.3398ZM7.96875 10.4922C7.65354 10.4922 7.3454 10.3987 7.08331 10.2236C6.82122 10.0485 6.61694 9.79956 6.49632 9.50834C6.37569 9.21712 6.34413 8.89667 6.40562 8.58751C6.46712 8.27835 6.61891 7.99438 6.8418 7.77149C7.06469 7.5486 7.34867 7.39681 7.65782 7.33531C7.96698 7.27382 8.28743 7.30538 8.57865 7.426C8.86987 7.54663 9.11878 7.75091 9.29391 8.013C9.46903 8.27509 9.5625 8.58322 9.5625 8.89844C9.5625 9.32113 9.39459 9.7265 9.0957 10.0254C8.79682 10.3243 8.39144 10.4922 7.96875 10.4922ZM20.1875 19.457H11.6875C11.4057 19.457 11.1355 19.3451 10.9362 19.1458C10.7369 18.9466 10.625 18.6763 10.625 18.3945C10.625 18.1127 10.7369 17.8425 10.9362 17.6432C11.1355 17.444 11.4057 17.332 11.6875 17.332H20.1875C20.4693 17.332 20.7395 17.444 20.9388 17.6432C21.1381 17.8425 21.25 18.1127 21.25 18.3945C21.25 18.6763 21.1381 18.9466 20.9388 19.1458C20.7395 19.3451 20.4693 19.457 20.1875 19.457ZM20.1875 14.7422H11.6875C11.4057 14.7422 11.1355 14.6302 10.9362 14.431C10.7369 14.2317 10.625 13.9615 10.625 13.6797C10.625 13.3979 10.7369 13.1276 10.9362 12.9284C11.1355 12.7291 11.4057 12.6172 11.6875 12.6172H20.1875C20.4693 12.6172 20.7395 12.7291 20.9388 12.9284C21.1381 13.1276 21.25 13.3979 21.25 13.6797C21.25 13.9615 21.1381 14.2317 20.9388 14.431C20.7395 14.6302 20.4693 14.7422 20.1875 14.7422ZM20.1875 9.96094H11.6875C11.4057 9.96094 11.1355 9.849 10.9362 9.64974C10.7369 9.45048 10.625 9.18023 10.625 8.89844C10.625 8.61664 10.7369 8.34639 10.9362 8.14714C11.1355 7.94788 11.4057 7.83594 11.6875 7.83594H20.1875C20.4693 7.83594 20.7395 7.94788 20.9388 8.14714C21.1381 8.34639 21.25 8.61664 21.25 8.89844C21.25 9.18023 21.1381 9.45048 20.9388 9.64974C20.7395 9.849 20.4693 9.96094 20.1875 9.96094Z" fill="white"/>
</svg>
