<svg width="24" height="24" viewBox="0 0 24 24" fill="none" xmlns="http://www.w3.org/2000/svg">
<path d="M23.2969 18.375H22.5938V16.2656C22.5938 15.0938 21.1874 12.3154 19.3926 11.418C19.1745 11.3089 18.9157 11.3206 18.7085 11.4488C18.5011 11.5769 18.375 11.8032 18.375 12.0469C18.375 12.5516 18.033 12.9896 17.5433 13.1121L17.0445 13.2367C18.2858 8.28009 18.375 8.08073 18.375 7.01053C18.375 3.14489 15.2511 0 11.4113 0H4.92188C3.25228 0 1.90331 1.18345 1.52011 2.66766C0.538688 3.89709 0 5.43225 0 7.01053C0 8.09892 0.0898125 8.2762 1.40737 13.5442C1.45594 17.7528 4.85733 24 9.1875 24C10.3797 24 11.6092 23.5127 12.7128 22.6144C13.5333 23.516 14.3838 23.8296 14.5449 23.9258C14.6426 23.9746 14.7502 24 14.8594 24H20.4844C20.5935 24 20.7012 23.9746 20.7988 23.9258C20.8274 23.9003 24 22.6196 24 19.0781C24 18.6898 23.6852 18.375 23.2969 18.375ZM17.8844 14.4763C18.6166 14.2933 19.2041 13.8007 19.5219 13.1588C20.2859 13.7647 20.8308 14.6136 21.0628 15.5625H14.9063C15.6547 14.9804 16.9802 14.6633 17.8844 14.4763ZM21.1875 16.9688V18.375H14.1562V16.9688H21.1875ZM4.92188 1.40625H11.4113C14.4757 1.40625 16.9688 3.9203 16.9688 7.01053C16.9688 7.69763 16.9289 7.92173 16.3196 10.3505C15.1431 7.67297 12.432 5.67188 9.1875 5.67188H4.92188C3.75877 5.67188 2.8125 4.72561 2.8125 3.5625C2.8125 2.39367 3.77845 1.40625 4.92188 1.40625ZM1.40625 7.01053C1.40625 6.34795 1.52536 5.69503 1.752 5.08209C2.29636 6.21309 3.42853 7.00978 4.74984 7.07377C3.58547 7.89145 2.63733 9.0262 2.05542 10.3505C1.44609 7.92178 1.40625 7.69763 1.40625 7.01053ZM12.75 16.268V18.375H12.0469C11.6586 18.375 11.3438 18.6898 11.3438 19.0781C11.3438 19.9058 11.5395 20.718 11.9115 21.4522C11.0367 22.1917 10.0844 22.5938 9.1875 22.5938C5.74303 22.5938 2.8125 16.9459 2.8125 13.4531C2.8125 9.93792 5.67234 7.07812 9.1875 7.07812C12.7027 7.07812 15.5625 9.93792 15.5625 13.4531C15.5625 13.5112 15.5615 13.5702 15.56 13.6299C14.2994 14.0668 13.2465 14.9576 12.8078 15.9866C12.7678 16.0792 12.7496 16.1743 12.75 16.268ZM20.3184 22.5938H15.0254C14.9878 22.5625 13.1927 21.8525 12.8136 19.7808H22.5301C22.1506 21.8549 20.3581 22.5612 20.3184 22.5938Z" fill="#AAAEF7"/>
</svg>
