<svg width="26" height="26" viewBox="0 0 26 26" fill="none" xmlns="http://www.w3.org/2000/svg">
<g clip-path="url(#clip0)">
<path d="M11.0936 0.856812C11.0936 0.856812 6.13536 1.09365 5.54546 6.99538C5.54546 6.99538 5.48687 8.5882 4.42453 9.23696C4.42453 9.23696 2.77147 10.2992 3.59835 13.1316C3.59835 13.1316 3.95278 14.9027 2.41759 15.9061C2.41759 15.9061 1.11951 17.0276 1.94666 18.6215C1.94666 18.6215 2.47797 19.1533 1.53309 20.0971C1.53309 20.0971 0.706623 21.5726 2.1234 23.5792C2.1234 23.5792 1.94666 22.1052 2.30027 21.7505C2.30027 21.7505 3.53934 23.2245 3.24515 24.2294C3.24515 24.2294 5.2521 23.1075 8.14327 22.8721C8.14327 22.8721 11.6256 22.2212 11.272 17.7965C11.272 17.7965 8.02581 15.2585 8.14327 13.015L8.55657 9.71051C8.55657 9.71051 9.91447 8.05951 10.0322 7.40937C10.0322 7.40937 10.9765 8.82532 9.79564 9.88766C9.79564 9.88766 11.8619 9.41521 11.1537 6.46394C11.1537 6.46394 11.625 5.40174 11.9209 5.46143C11.9209 5.46143 12.9241 8.05758 15.8762 8.23514C15.8762 8.23514 16.3468 11.185 18.1769 11.4812C18.1769 11.4812 18.2359 15.9067 15.6385 17.7373C15.6385 17.7373 15.0486 22.9313 20.2424 23.1674C20.2424 23.1674 19.298 25.5277 21.3636 25.9999C21.3636 25.9999 21.0097 23.6985 22.7213 23.6985L23.4884 24.6416C23.4884 24.6416 25.3185 22.3407 24.4918 20.7482C24.4918 20.7482 22.7804 19.9214 23.4299 17.7383C23.4299 17.7383 24.4918 16.9131 23.0161 15.8495C23.0161 15.8495 22.7211 15.4359 23.2546 14.9646C23.2546 14.9646 25.0835 13.4294 22.0143 10.0652L21.8977 6.99607C21.8977 6.99607 21.0714 2.39297 15.4649 0.208325C15.4629 0.207636 11.448 -0.560237 11.0936 0.856812Z" fill="#DE96E8"/>
</g>
<defs>
<clipPath id="clip0">
<rect width="26" height="26" fill="white"/>
</clipPath>
</defs>
</svg>
