<svg width="25" height="25" viewBox="0 0 25 25" fill="none" xmlns="http://www.w3.org/2000/svg">
<g clip-path="url(#clip0)">
<path d="M9.30659 7.32065L14.7056 9.48022V10.3027C14.7056 11.9182 16.0198 13.2324 17.6352 13.2324C19.2507 13.2324 20.5649 11.9182 20.5649 10.3027V10.2291C22.2344 9.88887 23.4946 8.40908 23.4946 6.64062C23.4946 4.87217 22.2344 3.39238 20.5649 3.0521V2.97852C20.5649 1.37231 19.2669 0 17.6352 0C16.0032 0 14.7056 1.37266 14.7056 2.97852V3.80098L9.30659 5.9606C9.02852 6.07183 8.84619 6.34116 8.84619 6.64062C8.84619 6.94009 9.02856 7.20942 9.30659 7.32065ZM16.9028 5.9082H13.3818C14.1871 5.58608 15.9488 4.8814 17.1748 4.39097C17.5504 4.24072 17.7331 3.8145 17.5829 3.43892C17.4326 3.06338 17.0064 2.88062 16.6308 3.03091L16.1704 3.21509V2.97852C16.1704 2.15801 16.8412 1.46484 17.6352 1.46484C18.4293 1.46484 19.1001 2.15801 19.1001 2.97852V3.71094C19.1001 4.11543 19.428 4.44336 19.8325 4.44336C21.0441 4.44336 22.0298 5.42905 22.0298 6.64062C22.0298 7.8522 21.0441 8.83789 19.8325 8.83789C19.428 8.83789 19.1001 9.16582 19.1001 9.57031V10.3027C19.1001 11.1104 18.443 11.7676 17.6352 11.7676C16.8275 11.7676 16.1704 11.1104 16.1704 10.3027V10.0662L16.6308 10.2504C17.0088 10.4016 17.4336 10.2155 17.5829 9.84238C17.7331 9.4668 17.5504 9.04058 17.1748 8.89033C16.5428 8.6375 14.3219 7.74917 13.3818 7.3731H16.9028C17.3073 7.3731 17.6352 7.04517 17.6352 6.64067C17.6352 6.23618 17.3073 5.9082 16.9028 5.9082Z" fill="#EAB488"/>
<path d="M5.18423 25H8.11392C8.48628 25 8.67442 24.7756 8.82495 24.485C10.0418 22.1354 12.6765 16.3526 11.4945 12.3415C11.2437 11.206 10.3013 9.85483 8.84634 9.10444V5.17578C8.84634 4.77129 8.51841 4.44336 8.11392 4.44336H5.18423C4.77974 4.44336 4.45181 4.77129 4.45181 5.17578V9.10444C3.23857 9.73018 2.38784 10.697 1.92026 11.9849C0.461765 16.002 3.21973 22.0648 4.47319 24.485C4.61372 24.7564 4.78921 25 5.18423 25ZM9.53936 18.9886C8.29341 18.6469 7.38149 17.4969 7.38149 16.1621C7.38149 14.5816 8.6397 13.2902 10.207 13.2351C10.5476 14.9564 10.1455 17.0704 9.53936 18.9886ZM5.91665 5.9082H7.38149V8.83789H5.91665V5.9082ZM3.29722 12.4848C3.66504 11.4716 4.33442 10.7571 5.33926 10.3027H7.95899C8.72461 10.6489 9.29502 11.1467 9.68589 11.8123C7.55791 12.1168 5.9167 13.9512 5.9167 16.1621C5.9167 18.125 7.21294 19.8265 9.05791 20.3741C8.55869 21.6957 8.02144 22.8292 7.66538 23.5352H5.63286C4.60415 21.4957 2.06221 15.8863 3.29722 12.4848Z" fill="#EAB488"/>
</g>
<defs>
<clipPath id="clip0">
<rect width="25" height="25" fill="white"/>
</clipPath>
</defs>
</svg>
