<svg width="24" height="24" viewBox="0 0 24 24" fill="none" xmlns="http://www.w3.org/2000/svg">
<g clip-path="url(#clip0)">
<path d="M9.54176 16.1725L12.8563 6.22877C12.9791 5.86037 12.78 5.46217 12.4116 5.33936C12.0432 5.21659 11.645 5.41567 11.5222 5.78406L8.20765 15.7278C8.08488 16.0962 8.28396 16.4944 8.65235 16.6172C8.72608 16.6418 8.80108 16.6534 8.87477 16.6534C9.16915 16.6535 9.44351 16.4672 9.54176 16.1725Z" fill="#DE96E8"/>
<path d="M14.5098 13.0876C15.6729 13.0876 16.6191 12.1414 16.6191 10.9783C16.6191 9.81516 15.6729 8.8689 14.5098 8.8689C13.3467 8.8689 12.4004 9.81516 12.4004 10.9783C12.4004 12.1414 13.3467 13.0876 14.5098 13.0876ZM14.5098 10.2751C14.8975 10.2751 15.2129 10.5906 15.2129 10.9783C15.2129 11.366 14.8975 11.6814 14.5098 11.6814C14.1221 11.6814 13.8066 11.366 13.8066 10.9783C13.8066 10.5906 14.1221 10.2751 14.5098 10.2751Z" fill="#DE96E8"/>
<path d="M6.55469 8.8689C5.39158 8.8689 4.44531 9.81516 4.44531 10.9783C4.44531 12.1414 5.39158 13.0876 6.55469 13.0876C7.7178 13.0876 8.66406 12.1414 8.66406 10.9783C8.66406 9.81516 7.71784 8.8689 6.55469 8.8689ZM6.55469 11.6814C6.16698 11.6814 5.85156 11.366 5.85156 10.9783C5.85156 10.5906 6.16698 10.2751 6.55469 10.2751C6.94239 10.2751 7.25781 10.5906 7.25781 10.9783C7.25781 11.366 6.94244 11.6814 6.55469 11.6814Z" fill="#DE96E8"/>
<path d="M23.8599 8.71898L21.408 5.44978L21.5036 4.78026C21.5349 4.56117 21.4613 4.34011 21.3047 4.18364L19.8132 2.69208L21.3047 1.20051C21.5793 0.925967 21.5793 0.480748 21.3047 0.206154C21.0301 -0.0683926 20.5849 -0.0683926 20.3103 0.206154L18.8188 1.69772L17.3273 0.206154C17.1708 0.0496387 16.9497 -0.0237676 16.7306 0.00726366L9.77002 1.00162C9.61941 1.02314 9.47987 1.09294 9.37229 1.20051L0.754414 9.81839C-0.25082 10.8236 -0.25082 12.4592 0.754414 13.4644L8.04643 20.7565C8.19559 20.9056 8.3589 21.0322 8.53173 21.137V21.4221C8.53173 22.8437 9.68827 24.0002 11.1099 24.0002H21.4224C22.8439 24.0002 24.0005 22.8437 24.0005 21.4221V9.14086C24.0005 8.98875 23.9511 8.84067 23.8599 8.71898ZM1.74877 12.4701C1.29184 12.0131 1.29184 11.2697 1.74877 10.8127L10.2009 2.36062L16.5814 1.44914L17.8244 2.69212L16.8301 3.68648L16.3329 3.18928C16.0583 2.91473 15.6131 2.91473 15.3385 3.18928C15.0639 3.46383 15.0639 3.90904 15.3385 4.18364L17.3273 6.1724C17.4646 6.3097 17.6445 6.37837 17.8244 6.37837C18.0043 6.37837 18.1843 6.3097 18.3216 6.1724C18.5962 5.89786 18.5962 5.45264 18.3216 5.17804L17.8244 4.68084L18.8187 3.68648L20.0617 4.92947L19.1502 11.31L10.6981 19.7621C10.4768 19.9835 10.1825 20.1053 9.86945 20.1053C9.55641 20.1053 9.26213 19.9834 9.04079 19.7621L1.74877 12.4701ZM22.5942 21.4221C22.5942 22.0683 22.0685 22.594 21.4224 22.594H11.1099C10.4928 22.594 9.98598 22.1145 9.94149 21.5086C10.5774 21.491 11.2081 21.2408 11.6924 20.7565L20.3103 12.1386C20.4179 12.031 20.4877 11.8915 20.5092 11.7409L21.1267 7.41853L22.5942 9.37523V21.4221Z" fill="#DE96E8"/>
</g>
<defs>
<clipPath id="clip0">
<rect width="24" height="24" fill="white"/>
</clipPath>
</defs>
</svg>
